<?xml version="1.0" standalone="no"?>
<!DOCTYPE svg PUBLIC "-//W3C//DTD SVG 20010904//EN"
 "http://www.w3.org/TR/2001/REC-SVG-20010904/DTD/svg10.dtd">
<svg version="1.0" xmlns="http://www.w3.org/2000/svg"
 width="264.000000pt" height="264.000000pt" viewBox="0 0 264.000000 264.000000"
 preserveAspectRatio="xMidYMid meet">
<metadata>
Created by potrace 1.14, written by Peter Selinger 2001-2017
</metadata>
<g transform="translate(0.000000,264.000000) scale(0.100000,-0.100000)"
fill="#000000" stroke="none">
<path d="M35 1770 l0 -870 35 -1 c19 0 437 -1 928 -1 490 0 892 -3 892 -6 0
-2 -141 -145 -313 -318 l-314 -312 131 -130 131 -130 540 539 540 538 -541
541 -540 541 -131 -129 -131 -129 314 -314 c172 -172 312 -315 310 -316 -2 -3
-1344 -6 -1452 -4 l-31 1 0 683 0 682 -184 3 -184 2 0 -870z"/>
</g>
</svg>
